<?xml version="1.0" encoding="UTF-8" standalone="no"?>
<svg
   xmlns:dc="http://purl.org/dc/elements/1.1/"
   xmlns:cc="http://creativecommons.org/ns#"
   xmlns:rdf="http://www.w3.org/1999/02/22-rdf-syntax-ns#"
   xmlns:svg="http://www.w3.org/2000/svg"
   xmlns="http://www.w3.org/2000/svg"
   xmlns:sodipodi="http://sodipodi.sourceforge.net/DTD/sodipodi-0.dtd"
   xmlns:inkscape="http://www.inkscape.org/namespaces/inkscape"
   width="210mm"
   height="297mm"
   viewBox="0 0 210 297"
   version="1.1"
   id="svg8"
   inkscape:version="1.0.1 (0767f8302a, 2020-10-17)"
   sodipodi:docname="avatars_template.svg">
  <style
     id="style916"></style>
  <defs
     id="defs2">
    <rect
       x="7.3871374"
       y="9.3709635"
       width="8.4315492"
       height="5.7301284"
       id="rect906" />
  </defs>
  <sodipodi:namedview
     id="base"
     pagecolor="#ffffff"
     bordercolor="#666666"
     borderopacity="1.0"
     inkscape:pageopacity="0.0"
     inkscape:pageshadow="2"
     inkscape:zoom="8.0000004"
     inkscape:cx="16.058688"
     inkscape:cy="32.656949"
     inkscape:document-units="mm"
     inkscape:current-layer="layer1"
     inkscape:document-rotation="0"
     showgrid="false"
     inkscape:window-width="1848"
     inkscape:window-height="1016"
     inkscape:window-x="72"
     inkscape:window-y="27"
     inkscape:window-maximized="1"
     inkscape:snap-global="false" />
  <metadata
     id="metadata5">
    <rdf:RDF>
      <cc:Work
         rdf:about="">
        <dc:format>image/svg+xml</dc:format>
        <dc:type
           rdf:resource="http://purl.org/dc/dcmitype/StillImage" />
        <dc:title />
      </cc:Work>
    </rdf:RDF>
  </metadata>
  <g
     inkscape:label="Ebene 1"
     inkscape:groupmode="layer"
     id="layer1"
     style="display:inline">
    <circle
       style="fill:#ff0000;fill-rule:evenodd;stroke-width:0.264583"
       id="head"
       cx="4.7879858"
       cy="4.6130929"
       r="2.7747242" />
    <path
       style="fill:none;stroke:#000000;stroke-width:0.265;stroke-linecap:round;stroke-linejoin:miter;stroke-miterlimit:4;stroke-dasharray:none;stroke-opacity:1"
       d="m 3.7559323,6.1329156 c 1.0797936,0.9157967 2.2006895,-0.04765 2.2006895,-0.04765"
       id="mouth" />
    <ellipse
       style="fill:#000000;fill-opacity:1;fill-rule:evenodd;stroke-width:0.264583"
       id="leftEye"
       cx="3.6104124"
       cy="4.4812512"
       rx="0.22828898"
       ry="0.22921064" />
    <ellipse
       style="fill:#000000;fill-opacity:1;fill-rule:evenodd;stroke-width:0.264583"
       id="rightEye"
       cx="5.9729996"
       cy="4.4344258"
       rx="0.22828898"
       ry="0.22921064" />
    <path
       style="fill:none;stroke:#000000;stroke-width:0.264583px;stroke-linecap:round;stroke-linejoin:miter;stroke-opacity:1"
       d="M 3.1387877,4.2195739 C 3.5866253,3.707217 4.1003955,4.1628914 4.1003955,4.1628914"
       id="leftEyeBrow"
       sodipodi:nodetypes="cc" />
    <path
       style="fill:none;stroke:#000000;stroke-width:0.264583px;stroke-linecap:round;stroke-linejoin:miter;stroke-opacity:1"
       d="M 5.4643788,4.167466 C 5.9122164,3.6551091 6.4259863,4.1107835 6.4259863,4.1107835"
       id="rightEyeBrow"
       sodipodi:nodetypes="cc" />
    <path
       style="fill:none;stroke:#000000;stroke-width:0.264583px;stroke-linecap:round;stroke-linejoin:miter;stroke-opacity:1"
       d="M 4.8620676,4.8995528 C 5.57943,5.8023171 4.7592439,5.6875002 4.7592439,5.6875002"
       id="nose"
       sodipodi:nodetypes="cc" />
    <path
       style="display:inline;fill:#0000ff;fill-opacity:1;stroke:none;stroke-width:0.265;stroke-linecap:butt;stroke-linejoin:miter;stroke-miterlimit:4;stroke-dasharray:none;stroke-opacity:1"
       d="M 3.5297453,6.604504 3.5121399,6.0154692 3.7042197,5.8820174 4.0120709,6.0172763 4.4897843,6.2448635 5.032727,6.2405534 5.366096,6.1480779 5.6647417,6.0109673 5.9127608,5.8031731 6.1135047,5.8296405 6.1750621,6.0775336 6.1493975,6.8571644 6.5274843,6.6168936 6.3915443,5.6992544 6.3095046,5.5079195 6.141424,5.4235271 5.9470353,5.4701373 5.5316119,5.6857108 5.2155136,5.8476565 4.8201121,5.9203092 4.3506601,5.7777165 3.9950257,5.5266917 3.6814574,5.4232862 3.3507621,5.5517123 3.1294016,5.8403516 l 0.043158,0.7800123 0.035712,0.1966005 0.2802321,0.1516078 z"
       id="beardStyle1"
       sodipodi:nodetypes="ccccccccccccccccccccccccccccc" />
    <path
       style="display:inline;fill:#0000ff;fill-opacity:1;stroke:none;stroke-width:0.264583px;stroke-linecap:butt;stroke-linejoin:miter;stroke-opacity:1"
       d="M 4.4645365,6.7364548 4.3715447,7.2194311 5.5290801,7.2079005 5.322177,6.7081238 Z"
       id="beardStyle2" />
    <path
       style="display:inline;opacity:1;fill:#0000ff;fill-opacity:1;stroke:none;stroke-width:0.264583px;stroke-linecap:butt;stroke-linejoin:miter;stroke-opacity:1"
       d="M 6.3948883,2.5826564 5.9599085,2.9951193 4.7859065,3.1065486 3.5552876,3.033491 3.3190236,2.8459515 3.1793476,2.5350668 2.7562989,2.9222222 2.3716532,3.5870364 2.3740832,3.9981449 2.841504,4.1860644 2.833154,4.718745 2.5383076,4.711915 c 0,0 -8.731e-4,-0.4587246 -0.042896,-0.4587246 -0.042022,0 -0.556188,-0.2110459 -0.556188,-0.2110459 l 0.246872,-0.907344 0.5125789,-0.6125241 0.6352921,-0.5375976 1.1519993,-0.3638566 0.6989833,0.015864 1.0363007,0.2771606 0.7398934,0.618848 0.478224,0.675533 0.221261,0.807259 -0.4389,0.1224555 -0.151197,0.3936086 -0.33695,0.028342 0.01246,-0.5374616 L 7.0917383,3.706876 6.8929493,3.1910616 6.6382433,2.7139501 Z"
       id="hairStyle1"
       sodipodi:nodetypes="ccccccccccccscccccccccccccccccc" />
    <path
       style="display:inline;fill:none;stroke:#000000;stroke-width:0.264583px;stroke-linecap:round;stroke-linejoin:miter;stroke-opacity:1"
       d="m 7.3154353,4.2380941 c 0.400745,-0.3662964 0.529568,0.8916443 -0.07116,0.9268265"
       id="rightEar" />
    <path
       style="fill:none;stroke:#000000;stroke-width:0.264583px;stroke-linecap:round;stroke-linejoin:miter;stroke-opacity:1"
       d="M 2.3606224,4.2864761 C 1.9598774,3.9201798 1.8310541,5.1781204 2.4317779,5.2133026"
       id="leftEar" />
    <path
       style="display:inline;fill:#0000ff;fill-opacity:1;stroke:none;stroke-width:0.264583px;stroke-linecap:butt;stroke-linejoin:miter;stroke-opacity:1"
       d="M 5.0786615,2.5930824 4.2964545,2.6282696 3.5988031,2.852252 2.9878413,3.1698848 2.7496613,4.0012371 2.6608126,6.0162307 2.0235433,7.4137726 1.4818687,7.4487177 0.56205329,7.4924274 0.06661669,7.5403884 0.88647259,6.2228187 1.6239709,3.8022662 2.2257967,2.5687457 3.1902593,1.7373967 4.4444033,1.1581079 5.1784762,1.2265869 5.5802307,1.5182032 6.2875717,1.412367 c 0,0 0.4257776,0.1032733 0.4713136,0.154852 0.04554,0.051579 0.544693,0.5557824 0.544693,0.5557824 L 8.1099433,3.608774 8.5365213,7.1714523 6.7781523,7.2246529 6.5919223,6.8351455 6.8474243,4.381482 6.5277003,3.1260557 6.1882772,2.8508695 5.8015334,2.6848367 5.5151387,2.826989 Z"
       id="hairStyle2"
       sodipodi:nodetypes="cccccccccccccccccccccccccccccc" />
    <path
       style="display:inline;fill:#000eff;fill-opacity:1;stroke:none;stroke-width:0.264583px;stroke-linecap:butt;stroke-linejoin:miter;stroke-opacity:1"
       d="m 2.6938181,4.11105 0.4166248,-1.2466828 3.3798654,-0.06514 0.598631,1.1430164 0.575044,-0.00524 L 7.1977783,0.8298532 6.7472213,1.2650065 6.1956689,0.81131234 c 0,0 0.00251,0.54736376 -0.063343,0.52184446 C 6.0664703,1.3076375 5.4801838,0.86561855 5.4801838,0.86561855 L 5.2720085,1.3444702 4.8445559,0.86094106 4.5747952,1.4391107 c 0,0 -0.6247236,-0.61569923 -0.6188768,-0.56491256 0.00585,0.0507866 0.00921,0.70186116 -0.038717,0.63225106 C 3.8692716,1.4368391 3.3460895,0.84859605 3.351936,0.90289762 3.3577833,0.95719917 3.2958441,1.7553528 3.2519495,1.6544164 3.2080551,1.5534801 2.6846418,0.98160511 2.6846418,0.98160511 L 2.644831,1.8013335 2.286677,1.1486624 2.0630329,3.964515 Z"
       id="hairStyle3" />
    <path
       style="display:inline;fill:#00ff61;fill-opacity:1;stroke:none;stroke-width:0.264583px;stroke-linecap:butt;stroke-linejoin:miter;stroke-opacity:1"
       d="M 4.8993628,6.7653039 4.2707789,6.7532707 3.6204691,6.3703826 3.4313116,5.8130963 3.3153188,5.4392728 2.6792403,5.1770922 2.494091,5.9356291 2.7965325,6.7629817 3.4478313,7.5843536 4.1193767,8.1215562 5.283289,8.1316527 6.1558593,7.5453355 6.8473253,6.7632956 7.3700823,5.7159547 c 0,0 -0.279872,-0.4337094 -0.329982,-0.4337094 -0.05012,0 -0.542863,0.3489955 -0.542863,0.3489955 L 6.1956631,6.1800424 5.7857008,6.5806748 5.3085657,6.7131514 Z"
       id="beardStyle3"
       sodipodi:nodetypes="ccccccccccccccsccccc"
       inkscape:label="beardStyle3" />
    <g
       id="beardStyle4"
       style="display:inline"
       transform="translate(-3.6693737,0.01995699)">
      <path
         style="fill:#00ff61;fill-opacity:1;stroke:none;stroke-width:0.264583px;stroke-linecap:butt;stroke-linejoin:miter;stroke-opacity:1"
         d="m 6.6732298,5.4424707 0.2636375,0.613156 0.4195542,0.403071 0.049692,0.699846 L 6.7444746,6.9957491 6.2934399,6.8143306 6.2088749,5.9174598 6.2771079,4.9186404 6.5779713,5.0384684 Z"
         id="path859"
         sodipodi:nodetypes="cccccccccc" />
      <path
         style="fill:#00ff61;fill-opacity:1;stroke:none;stroke-width:0.264583px;stroke-linecap:butt;stroke-linejoin:miter;stroke-opacity:1"
         d="m 10.233582,5.4423328 -0.2636378,0.613156 -0.4195541,0.403071 -0.049692,0.699846 0.6616389,-0.1627946 0.451035,-0.1814185 0.08456,-0.8968708 -0.06823,-0.9988194 -0.300864,0.119828 z"
         id="path859-6"
         sodipodi:nodetypes="cccccccccc" />
    </g>
    <path
       style="fill:#00ff61;fill-opacity:1;stroke:none;stroke-width:0.264583px;stroke-linecap:butt;stroke-linejoin:miter;stroke-opacity:1"
       d="M 2.0097548,4.0120458 2.0837612,2.975696 2.6454782,2.192261 c 0,0 1.0486583,-0.6078651 1.10456,-0.6366053 0.055902,-0.02874 0.7079279,-0.093482 0.7079279,-0.093482 L 3.4466294,1.4662761 3.184676,1.191243 3.4120348,0.41353295 4.3465069,0.11709287 5.6940306,0.09244712 6.4167033,0.48409409 6.4558963,1.1274945 6.0341025,1.546994 5.109866,1.542384 l 0.8286195,0.1075593 1.0487728,0.4912213 0.43236,0.768519 0.204554,0.7610763 -0.0033,0.3274843 c 0,0 -0.398203,-0.00169 -0.475767,0.054121 -0.07756,0.055823 -0.04722,0.309526 -0.04722,0.309526 l -0.32395,0.04615 -0.04664,-1.015061 L 6.3431873,2.9346387 5.8700576,2.7635864 4.7962861,2.7542572 3.8478938,2.9076719 3.0506968,3.1346439 2.9366815,3.5132639 2.8615356,4.516936 2.6151594,4.4372719 2.5784242,4.0346005 Z"
       id="hairStyle4"
       sodipodi:nodetypes="cccsccccccccccccccccccccccccccccc" />
    <path
       style="fill:#ff0000;fill-opacity:1;stroke:none;stroke-width:0.264583px;stroke-linecap:butt;stroke-linejoin:miter;stroke-opacity:1"
       d="m 3.7711812,7.33989 c 0.1576127,0.5884539 0.099052,0.7552686 0.099052,0.7552686 0,0 0.0089,0.4903159 -0.2020865,1.032221 L 6.1608401,9.1042385 C 5.8847412,8.4963231 5.8969263,8.0801369 5.8969263,8.0801369 c 0,0 -0.048995,-0.3255651 0.081634,-0.7945957 C 5.4912757,7.4128957 4.8624866,7.6429149 3.7711812,7.33989 Z"
       id="neck"
       sodipodi:nodetypes="ccccccc" />
    <rect
       style="fill:#8d5524;fill-opacity:1;stroke-width:0.264999;stroke-linecap:round"
       id="skinColor1"
       width="3.0437276"
       height="0.71732497"
       x="2.0328207"
       y="10.32471" />
    <rect
       style="fill:#c68642;fill-opacity:1;stroke-width:0.264999;stroke-linecap:round"
       id="skinColor2"
       width="3.0437276"
       height="0.71732497"
       x="2.0328207"
       y="11.79905" />
    <rect
       style="fill:#e0ac69;fill-opacity:1;stroke-width:0.264999;stroke-linecap:round"
       id="skinColor3"
       width="3.0437276"
       height="0.71732497"
       x="2.0328207"
       y="13.27339" />
    <rect
       style="fill:#f1c27d;fill-opacity:1;stroke-width:0.264999;stroke-linecap:round"
       id="skinColor4"
       width="3.0437276"
       height="0.71732497"
       x="2.0328207"
       y="14.747731" />
    <rect
       style="fill:#ffdbac;fill-opacity:1;stroke:none;stroke-width:0.264999;stroke-linecap:round;stroke-opacity:1"
       id="skinColor5"
       width="3.0437276"
       height="0.71732497"
       x="2.0328207"
       y="16.222071" />
    <text
       xml:space="preserve"
       id="text904"
       style="font-size:2.82222px;line-height:1.25;font-family:sans-serif;white-space:pre;shape-inside:url(#rect906);" />
    <rect
       style="fill:#4f2500;fill-opacity:1;stroke-width:0.264999;stroke-linecap:round"
       id="hairColor1"
       width="3.0437276"
       height="0.71732497"
       x="7.8708439"
       y="10.356962" />
    <rect
       style="fill:#ff7f2a;fill-opacity:1;stroke-width:0.264999;stroke-linecap:round"
       id="hairColor2"
       width="3.0437276"
       height="0.71732497"
       x="7.9281001"
       y="11.67805" />
    <rect
       style="fill:#a19994;fill-opacity:1;stroke-width:0.264999;stroke-linecap:round"
       id="hairColor3"
       width="3.0437276"
       height="0.71732497"
       x="7.7552524"
       y="13.054545" />
    <rect
       style="fill:#ffeeaa;fill-opacity:1;stroke-width:0.264999;stroke-linecap:round"
       id="hairColor4"
       width="3.0437276"
       height="0.71732497"
       x="7.8482156"
       y="14.415666" />
    <rect
       style="fill:#c87137;fill-opacity:1;stroke-width:0.264999;stroke-linecap:round"
       id="hairColor5"
       width="3.0437276"
       height="0.71732497"
       x="7.7734537"
       y="15.894968" />
  </g>
</svg>
