<?xml version="1.0" encoding="UTF-8" standalone="no"?>
<svg
   xmlns:dc="http://purl.org/dc/elements/1.1/"
   xmlns:cc="http://creativecommons.org/ns#"
   xmlns:rdf="http://www.w3.org/1999/02/22-rdf-syntax-ns#"
   xmlns:svg="http://www.w3.org/2000/svg"
   xmlns="http://www.w3.org/2000/svg"
   xmlns:sodipodi="http://sodipodi.sourceforge.net/DTD/sodipodi-0.dtd"
   xmlns:inkscape="http://www.inkscape.org/namespaces/inkscape"
   width="210mm"
   height="297mm"
   viewBox="0 0 210 297"
   version="1.1"
   id="svg8"
   inkscape:version="1.0.1 (0767f8302a, 2020-10-17)"
   sodipodi:docname="avatars_template.svg">
  <style
     id="style916"></style>
  <defs
     id="defs2" />
  <sodipodi:namedview
     id="base"
     pagecolor="#ffffff"
     bordercolor="#666666"
     borderopacity="1.0"
     inkscape:pageopacity="0.0"
     inkscape:pageshadow="2"
     inkscape:zoom="11.313709"
     inkscape:cx="14.747365"
     inkscape:cy="20.984816"
     inkscape:document-units="mm"
     inkscape:current-layer="layer1"
     inkscape:document-rotation="0"
     showgrid="false"
     inkscape:window-width="1848"
     inkscape:window-height="1016"
     inkscape:window-x="72"
     inkscape:window-y="27"
     inkscape:window-maximized="1"
     inkscape:snap-global="false" />
  <metadata
     id="metadata5">
    <rdf:RDF>
      <cc:Work
         rdf:about="">
        <dc:format>image/svg+xml</dc:format>
        <dc:type
           rdf:resource="http://purl.org/dc/dcmitype/StillImage" />
        <dc:title />
      </cc:Work>
    </rdf:RDF>
  </metadata>
  <g
     inkscape:label="Ebene 1"
     inkscape:groupmode="layer"
     id="layer1">
    <circle
       style="fill:#ff0000;fill-rule:evenodd;stroke-width:0.264583"
       id="head"
       cx="8.4573593"
       cy="4.5931358"
       r="2.7747242" />
    <path
       style="fill:none;stroke:#000000;stroke-width:0.265;stroke-linecap:round;stroke-linejoin:miter;stroke-miterlimit:4;stroke-dasharray:none;stroke-opacity:1"
       d="m 7.425306,6.1129586 c 1.0797936,0.9157967 2.2006895,-0.04765 2.2006895,-0.04765"
       id="mouth" />
    <ellipse
       style="fill:#000000;fill-opacity:1;fill-rule:evenodd;stroke-width:0.264583"
       id="leftEye"
       cx="7.2797861"
       cy="4.4612942"
       rx="0.22828898"
       ry="0.22921064" />
    <ellipse
       style="fill:#000000;fill-opacity:1;fill-rule:evenodd;stroke-width:0.264583"
       id="rightEye"
       cx="9.6423731"
       cy="4.4144688"
       rx="0.22828898"
       ry="0.22921064" />
    <path
       style="fill:none;stroke:#000000;stroke-width:0.264583px;stroke-linecap:round;stroke-linejoin:miter;stroke-opacity:1"
       d="M 6.8081614,4.1996169 C 7.255999,3.68726 7.7697692,4.1429344 7.7697692,4.1429344"
       id="leftEyeBrow"
       sodipodi:nodetypes="cc" />
    <path
       style="fill:none;stroke:#000000;stroke-width:0.264583px;stroke-linecap:round;stroke-linejoin:miter;stroke-opacity:1"
       d="M 9.1337525,4.147509 C 9.5815901,3.6351521 10.09536,4.0908265 10.09536,4.0908265"
       id="rightEyeBrow"
       sodipodi:nodetypes="cc" />
    <path
       style="fill:none;stroke:#000000;stroke-width:0.264583px;stroke-linecap:round;stroke-linejoin:miter;stroke-opacity:1"
       d="M 8.5314413,4.8795958 C 9.2488037,5.7823601 8.4286176,5.6675432 8.4286176,5.6675432"
       id="nose"
       sodipodi:nodetypes="cc" />
    <path
       style="display:none;fill:#0000ff;fill-opacity:1;stroke:none;stroke-width:0.265;stroke-linecap:butt;stroke-linejoin:miter;stroke-miterlimit:4;stroke-dasharray:none;stroke-opacity:1"
       d="M 7.199119,6.584547 7.1815136,5.9955122 7.3735934,5.8620604 7.6814446,5.9973193 8.159158,6.2249065 8.7021007,6.2205964 9.0354697,6.1281209 9.3341154,5.9910103 9.5821345,5.7832161 9.7828784,5.8096835 9.8444358,6.0575766 9.8187712,6.8372074 10.196858,6.5969366 10.060918,5.6792974 9.9788783,5.4879625 9.8107977,5.4035701 9.616409,5.4501803 9.2009856,5.6657538 8.8848873,5.8276995 8.4894858,5.9003522 8.0200338,5.7577595 7.6643994,5.5067347 7.3508311,5.4033292 7.0201358,5.5317553 6.7987753,5.8203946 l 0.043158,0.7800123 0.035712,0.1966005 0.2802321,0.1516078 z"
       id="beardStyle1"
       sodipodi:nodetypes="ccccccccccccccccccccccccccccc" />
    <path
       style="display:none;fill:#0000ff;fill-opacity:1;stroke:none;stroke-width:0.264583px;stroke-linecap:butt;stroke-linejoin:miter;stroke-opacity:1"
       d="M 8.1339102,6.7164978 8.0409184,7.1994741 9.1984538,7.1879435 8.9915507,6.6881668 Z"
       id="beardStyle2" />
    <path
       style="display:none;opacity:1;fill:#0000ff;fill-opacity:1;stroke:none;stroke-width:0.264583px;stroke-linecap:butt;stroke-linejoin:miter;stroke-opacity:1"
       d="M 10.064262,2.5626994 9.6292822,2.9751623 8.4552802,3.0865916 7.2246613,3.013534 6.9883973,2.8259945 6.8487213,2.5151098 6.4256726,2.9022652 6.0410269,3.5670794 6.0434569,3.9781879 6.5108777,4.1661074 6.5025277,4.698788 6.2076813,4.691958 c 0,0 -8.731e-4,-0.4587246 -0.042896,-0.4587246 -0.042022,0 -0.556188,-0.2110459 -0.556188,-0.2110459 l 0.246872,-0.907344 0.5125789,-0.6125241 0.6352921,-0.5375976 1.1519993,-0.3638566 0.6989833,0.015864 1.0363007,0.2771606 0.7398934,0.618848 0.478224,0.675533 0.221261,0.807259 -0.4389,0.1224555 -0.151197,0.3936086 -0.33695,0.028342 0.01246,-0.5374616 L 10.761112,3.686919 10.562323,3.1711046 10.307617,2.6939931 Z"
       id="hairStyle1"
       sodipodi:nodetypes="ccccccccccccscccccccccccccccccc" />
    <path
       style="display:inline;fill:none;stroke:#000000;stroke-width:0.264583px;stroke-linecap:round;stroke-linejoin:miter;stroke-opacity:1"
       d="m 10.984809,4.2181371 c 0.400745,-0.3662964 0.529568,0.8916443 -0.07116,0.9268265"
       id="rightEar" />
    <path
       style="fill:none;stroke:#000000;stroke-width:0.264583px;stroke-linecap:round;stroke-linejoin:miter;stroke-opacity:1"
       d="M 6.0299961,4.2665191 C 5.6292511,3.9002228 5.5004278,5.1581634 6.1011516,5.1933456"
       id="leftEar" />
    <path
       style="display:none;fill:#0000ff;fill-opacity:1;stroke:none;stroke-width:0.264583px;stroke-linecap:butt;stroke-linejoin:miter;stroke-opacity:1"
       d="M 8.7480352,2.5731254 7.9658282,2.6083126 7.2681768,2.832295 6.657215,3.1499278 6.419035,3.9812801 6.3301863,5.9962737 5.692917,7.3938156 5.1512424,7.4287607 4.231427,7.4724704 3.7359904,7.5204314 4.5558463,6.2028617 5.2933446,3.7823092 5.8951704,2.5487887 6.859633,1.7174397 8.113777,1.1381509 8.8478499,1.2066299 9.2496044,1.4982462 9.9569454,1.39241 c 0,0 0.4257776,0.1032733 0.4713136,0.154852 0.04554,0.051579 0.544693,0.5557824 0.544693,0.5557824 L 11.779317,3.588817 12.205895,7.1514953 10.447526,7.2046959 10.261296,6.8151885 10.516798,4.361525 10.197074,3.1060987 9.8576509,2.8309125 9.4709071,2.6648797 9.1845124,2.807032 Z"
       id="hairStyle2"
       sodipodi:nodetypes="cccccccccccccccccccccccccccccc" />
    <path
       style="display:none;fill:#000eff;fill-opacity:1;stroke:none;stroke-width:0.264583px;stroke-linecap:butt;stroke-linejoin:miter;stroke-opacity:1"
       d="m 6.3631918,4.091093 0.4166248,-1.2466828 3.3798654,-0.06514 0.598631,1.1430164 0.575044,-0.00524 L 10.867152,0.80989621 10.416595,1.2450495 9.8650426,0.79135535 c 0,0 0.00251,0.54736375 -0.063343,0.52184445 C 9.735844,1.2876805 9.1495575,0.84566156 9.1495575,0.84566156 L 8.9413822,1.3245132 8.5139296,0.84098407 8.2441689,1.4191537 c 0,0 -0.6247236,-0.61569922 -0.6188768,-0.56491255 0.00585,0.0507866 0.00921,0.70186115 -0.038717,0.63225105 C 7.5386453,1.4168821 7.0154632,0.82863906 7.0213097,0.88294063 7.027157,0.93724218 6.9652178,1.7353958 6.9213232,1.6344594 6.8774288,1.5335231 6.3540155,0.96164812 6.3540155,0.96164812 L 6.3142047,1.7813765 5.9560507,1.1287054 5.7324066,3.944558 Z"
       id="hairStyle3" />
    <path
       style="display:none;fill:#00ff61;fill-opacity:1;stroke:none;stroke-width:0.264583px;stroke-linecap:butt;stroke-linejoin:miter;stroke-opacity:1"
       d="M 8.5687365,6.7453469 7.9401526,6.7333137 7.2898428,6.3504256 7.1006853,5.7931393 6.9846925,5.4193158 6.348614,5.1571352 6.1634647,5.9156721 6.4659062,6.7430247 7.117205,7.5643966 7.7887504,8.1015992 8.9526627,8.1116957 9.825233,7.5253785 10.516699,6.7433386 11.039456,5.6959977 c 0,0 -0.279872,-0.4337094 -0.329982,-0.4337094 -0.05012,0 -0.542863,0.3489955 -0.542863,0.3489955 L 9.8650368,6.1600854 9.4550745,6.5607178 8.9779394,6.6931944 Z"
       id="beardStyle3"
       sodipodi:nodetypes="ccccccccccccccsccccc"
       inkscape:label="beardStyle3" />
    <g
       id="beardStyle4"
       style="display:none">
      <path
         style="fill:#00ff61;fill-opacity:1;stroke:none;stroke-width:0.264583px;stroke-linecap:butt;stroke-linejoin:miter;stroke-opacity:1"
         d="m 6.6732298,5.4424707 0.2636375,0.613156 0.4195542,0.403071 0.049692,0.699846 L 6.7444746,6.9957491 6.2934399,6.8143306 6.2088749,5.9174598 6.2771079,4.9186404 6.5779713,5.0384684 Z"
         id="path859"
         sodipodi:nodetypes="cccccccccc" />
      <path
         style="fill:#00ff61;fill-opacity:1;stroke:none;stroke-width:0.264583px;stroke-linecap:butt;stroke-linejoin:miter;stroke-opacity:1"
         d="m 10.233582,5.4423328 -0.2636378,0.613156 -0.4195541,0.403071 -0.049692,0.699846 0.6616389,-0.1627946 0.451035,-0.1814185 0.08456,-0.8968708 -0.06823,-0.9988194 -0.300864,0.119828 z"
         id="path859-6"
         sodipodi:nodetypes="cccccccccc" />
    </g>
    <path
       style="fill:#00ff61;fill-opacity:1;stroke:none;stroke-width:0.264583px;stroke-linecap:butt;stroke-linejoin:miter;stroke-opacity:1"
       d="M 5.6791285,3.9920888 5.7531349,2.955739 6.3148519,2.172304 c 0,0 1.0486583,-0.6078651 1.10456,-0.6366053 0.055902,-0.02874 0.7079279,-0.093482 0.7079279,-0.093482 L 7.1160031,1.4463191 6.8540497,1.171286 7.0814085,0.39357596 8.0158806,0.09713588 9.3634043,0.07249013 10.086077,0.4641371 10.12527,1.1075375 9.7034762,1.527037 8.7792397,1.522427 l 0.8286195,0.1075593 1.0487728,0.4912213 0.43236,0.768519 0.204554,0.7610763 -0.0033,0.3274843 c 0,0 -0.398203,-0.00169 -0.475767,0.054121 -0.07756,0.055823 -0.04722,0.309526 -0.04722,0.309526 l -0.32395,0.04615 -0.04664,-1.015061 L 10.012561,2.9146817 9.5394313,2.7436294 8.4656598,2.7343002 7.5172675,2.8877149 6.7200705,3.1146869 6.6060552,3.4933069 6.5309093,4.496979 6.2845331,4.4173149 6.2477979,4.0146435 Z"
       id="hairStyle4"
       sodipodi:nodetypes="cccsccccccccccccccccccccccccccccc" />
    <path
       style="fill:#ff0000;fill-opacity:1;stroke:none;stroke-width:0.264583px;stroke-linecap:butt;stroke-linejoin:miter;stroke-opacity:1"
       d="m 7.4405549,7.319933 c 0.1576127,0.5884539 0.099052,0.7552686 0.099052,0.7552686 0,0 0.0089,0.4903159 -0.2020865,1.032221 L 9.8302138,9.0842815 C 9.5541149,8.4763661 9.5663,8.0601799 9.5663,8.0601799 c 0,0 -0.048995,-0.3255651 0.081634,-0.7945957 C 9.1606494,7.3929387 8.5318603,7.6229579 7.4405549,7.319933 Z"
       id="neck"
       sodipodi:nodetypes="ccccccc" />
  </g>
</svg>
